<svg width="518" height="120" viewBox="0 0 518 120" fill="none" xmlns="http://www.w3.org/2000/svg">
  <path d="M0 27.6619C0 19.889 8.47971 15.0878 15.145 19.087L40.2899 34.174C46.314 37.7884 50 44.2986 50 51.3238V68.6762C50 75.7015 46.314 82.2116 40.2899 85.8261L15.1449 100.913C8.47968 104.912 0 100.111 0 92.3381V27.6619Z" fill="#4A90E2"/>
  <path d="M103.855 0C109.151 0 111.85 6.36198 108.169 10.1701L94.8962 23.9004C91.1279 27.7987 85.9383 30 80.5165 30H55.5397C51.9148 30 48.3581 29.0148 45.2498 27.1498L18.5749 11.1449C13.3568 8.01404 15.5766 0 21.6619 0H103.855Z" fill="#7ED321"/>
  <path d="M103.855 120C109.151 120 111.85 113.638 108.169 109.83L94.8962 96.0995C91.1279 92.2013 85.9384 90 80.5165 90H55.5397C51.9148 90 48.3581 90.9851 45.2498 92.8501L18.5749 108.855C13.3568 111.986 15.5766 120 21.6619 120H103.855Z" fill="#7ED321"/>
  <circle cx="60" cy="60" r="15" fill="#A0D3E8"/>
  <text x="120" y="80" fill="white" font-size="82" font-weight="bold" font-family="Arial">EventHub</text>
  <text x="135" y="115" fill="white" font-size="28" font-weight="normal" font-family="Arial">MIT Academy of Engineering</text>
</svg>
